<mxfile host="app.diagrams.net" modified="2023-08-29T13:09:25.777Z" agent="Mozilla/5.0 (Windows NT 10.0; Win64; x64) AppleWebKit/537.36 (KHTML, like Gecko) Chrome/116.0.0.0 Safari/537.36" version="21.6.9" etag="7kAqJ849gDeplN7y5_aA" type="github">
  <diagram name="PÃ¡gina-1" id="VZ_wWFqH9H4OCh5r0UeW">
    <mxGraphModel>
      <root>
        <mxCell id="0" />
        <mxCell id="1" parent="0" />
      </root>
    </mxGraphModel>
  </diagram>
</mxfile>
